<svg width="256" height="256" viewBox="0 0 256 256" fill="none" xmlns="http://www.w3.org/2000/svg">
  <defs>
    <linearGradient id="p1" x1="128" y1="20" x2="128" y2="120" gradientUnits="userSpaceOnUse">
      <stop stop-color="#FF3366"/>
      <stop offset="1" stop-color="#FF9933" stop-opacity="0.8"/>
    </linearGradient>
    <linearGradient id="p2" x1="220" y1="80" x2="150" y2="140" gradientUnits="userSpaceOnUse">
      <stop stop-color="#FF9933"/>
      <stop offset="1" stop-color="#33CC99" stop-opacity="0.8"/>
    </linearGradient>
    <linearGradient id="p3" x1="220" y1="180" x2="150" y2="150" gradientUnits="userSpaceOnUse">
      <stop stop-color="#33CC99"/>
      <stop offset="1" stop-color="#3399FF" stop-opacity="0.8"/>
    </linearGradient>
    <linearGradient id="p4" x1="128" y1="236" x2="128" y2="160" gradientUnits="userSpaceOnUse">
      <stop stop-color="#3399FF"/>
      <stop offset="1" stop-color="#9933FF" stop-opacity="0.8"/>
    </linearGradient>
    <linearGradient id="p5" x1="36" y1="180" x2="106" y2="150" gradientUnits="userSpaceOnUse">
      <stop stop-color="#9933FF"/>
      <stop offset="1" stop-color="#FF3399" stop-opacity="0.8"/>
    </linearGradient>
    <linearGradient id="p6" x1="36" y1="80" x2="106" y2="140" gradientUnits="userSpaceOnUse">
      <stop stop-color="#FF3399"/>
      <stop offset="1" stop-color="#FF3366" stop-opacity="0.8"/>
    </linearGradient>
  </defs>

  <circle cx="128" cy="128" r="128" fill="#1A1A1A"/>
  
  <!-- Petal 1 Top -->
  <path d="M128 32 C150 70, 160 110, 140 120 C120 130, 106 110, 128 32 Z" fill="url(#p1)"/>
  
  <!-- Petal 2 Top Right -->
  <path d="M211 80 C180 110, 145 130, 133 115 C121 100, 150 75, 211 80 Z" fill="url(#p2)"/>
  
  <!-- Petal 3 Bottom Right -->
  <path d="M211 176 C180 146, 145 126, 133 141 C121 156, 150 181, 211 176 Z" fill="url(#p3)"/>
  
  <!-- Petal 4 Bottom -->
  <path d="M128 224 C150 186, 160 146, 140 136 C120 126, 106 146, 128 224 Z" fill="url(#p4)"/>
  
  <!-- Petal 5 Bottom Left -->
  <path d="M45 176 C76 146, 111 126, 123 141 C135 156, 106 181, 45 176 Z" fill="url(#p5)"/>
  
  <!-- Petal 6 Top Left -->
  <path d="M45 80 C76 110, 111 130, 123 115 C135 100, 106 75, 45 80 Z" fill="url(#p6)"/>
  
  <!-- Center Dot -->
  <circle cx="128" cy="128" r="16" fill="#FFFFFF" fill-opacity="0.9"/>
</svg>
